<?xml version="1.0" encoding="utf-8"?>
<svg xmlns="http://www.w3.org/2000/svg"
     width="24" height="24" viewBox="0 0 24 24"
     role="img" aria-label="KiNotes icon scaled 24px">

  <defs>
    <style>
      .pcb-green { fill: #085C34; }
      .ic-body { fill: #FFFFFF; }
      .pin { fill: #D4AF37; }
      .pad { fill: #D4AF37; }
      .hole { fill: #000000; }

      .track {
        stroke: #0A7A44;
        stroke-width: 0.75;
        fill: none;
        stroke-linecap: round;
      }

      .task-box {
        fill: #FFFFFF;
        stroke: #000000;
        stroke-width: 0.5;
      }

      .check {
        stroke: #000000;
        stroke-width: 0.5;
        stroke-linecap: round;
        stroke-linejoin: round;
        fill: none;
      }

      .line {
        stroke: #085C34;
        stroke-width: 0.9;
        stroke-linecap: round;
      }

      .ic-border {
        stroke: #000000;
        stroke-width: 0.5;
        fill: none;
      }
    </style>
  </defs>

  <!-- OUTER -->
  <rect x="0.375" y="0.375" width="23.25" height="23.25" rx="0.95" class="pcb-green"/>

  <!-- IC BODY -->
  <rect x="3" y="3" width="18" height="18" rx="1.9" class="ic-body"/>
  <rect x="3.15" y="3.15" width="17.7" height="17.7" rx="1.8" class="ic-border"/>

  <!-- GREEN NOTES BAR -->
  <rect x="4.3" y="6" width="5.25" height="12" rx="0.9" class="pcb-green"/>

  <!-- STRAIGHT PCB TRACKS -->
  <path d="M6 8.4 L6 14.1" class="track"/>
  <path d="M7.9 9.9 L7.9 14.1" class="track"/>

  <!-- ROUND PADS -->
  <circle cx="6" cy="8.4" r="0.75" class="pad"/>
  <circle cx="7.9" cy="9.9" r="0.75" class="pad"/>

  <!-- HOLES -->
  <circle cx="6" cy="8.4" r="0.35" class="hole"/>
  <circle cx="7.9" cy="9.9" r="0.35" class="hole"/>

  <!-- RECTANGULAR PADS -->
  <rect x="5.5" y="14.1" width="0.95" height="1.9" rx="0.2" class="pad"/>
  <rect x="7.5" y="14.1" width="0.95" height="1.9" rx="0.2" class="pad"/>

  <!-- NOTEBOOK LINES -->
  <line x1="11.2" y1="7.2" x2="18.8" y2="7.2" class="line"/>
  <line x1="11.2" y1="9.4" x2="18.8" y2="9.4" class="line"/>

  <!-- CHECKBOX -->
  <rect x="11.2" y="11.2" width="7.6" height="7.6" rx="1.5" class="task-box"/>

  <!-- CHECKMARK -->
  <path d="M12.3 14.7 L14.2 16.4 L17.3 13.2" class="check"/>

  <!-- GOLD PINS — 6 PER SIDE -->

  <!-- LEFT -->
  <g class="pin">
    <rect x="0.75" y="6.6" width="1.9" height="0.75" rx="0.2"/>
    <rect x="0.75" y="8.8" width="1.9" height="0.75" rx="0.2"/>
    <rect x="0.75" y="11.0" width="1.9" height="0.75" rx="0.2"/>
    <rect x="0.75" y="13.2" width="1.9" height="0.75" rx="0.2"/>
    <rect x="0.75" y="15.4" width="1.9" height="0.75" rx="0.2"/>
    <rect x="0.75" y="17.6" width="1.9" height="0.75" rx="0.2"/>
  </g>

  <!-- RIGHT -->
  <g class="pin">
    <rect x="21.35" y="6.6" width="1.9" height="0.75" rx="0.2"/>
    <rect x="21.35" y="8.8" width="1.9" height="0.75" rx="0.2"/>
    <rect x="21.35" y="11.0" width="1.9" height="0.75" rx="0.2"/>
    <rect x="21.35" y="13.2" width="1.9" height="0.75" rx="0.2"/>
    <rect x="21.35" y="15.4" width="1.9" height="0.75" rx="0.2"/>
    <rect x="21.35" y="17.6" width="1.9" height="0.75" rx="0.2"/>
  </g>

  <!-- TOP -->
  <g class="pin">
    <rect x="6.6" y="0.75" width="0.75" height="1.9" rx="0.2"/>
    <rect x="8.8" y="0.75" width="0.75" height="1.9" rx="0.2"/>
    <rect x="11.0" y="0.75" width="0.75" height="1.9" rx="0.2"/>
    <rect x="13.2" y="0.75" width="0.75" height="1.9" rx="0.2"/>
    <rect x="15.4" y="0.75" width="0.75" height="1.9" rx="0.2"/>
    <rect x="17.6" y="0.75" width="0.75" height="1.9" rx="0.2"/>
  </g>

  <!-- BOTTOM -->
  <g class="pin">
    <rect x="6.6" y="21.35" width="0.75" height="1.9" rx="0.2"/>
    <rect x="8.8" y="21.35" width="0.75" height="1.9" rx="0.2"/>
    <rect x="11.0" y="21.35" width="0.75" height="1.9" rx="0.2"/>
    <rect x="13.2" y="21.35" width="0.75" height="1.9" rx="0.2"/>
    <rect x="15.4" y="21.35" width="0.75" height="1.9" rx="0.2"/>
    <rect x="17.6" y="21.35" width="0.75" height="1.9" rx="0.2"/>
  </g>

</svg>
